<svg xmlns="http://www.w3.org/2000/svg" width="24" height="24" viewBox="0 0 24 24" fill="none" stroke="currentColor" stroke-width="2" stroke-linecap="round" stroke-linejoin="round"><path d="M13 5h8"/><path d="M13 12h8"/><path d="M13 19h8"/><path d="M3 5m0 2a2 2 0 0 1 2 -2h4a2 2 0 0 1 2 2v0a2 2 0 0 1 -2 2h-4a2 2 0 0 1 -2 -2z"/><path d="M3 12m0 2a2 2 0 0 1 2 -2h4a2 2 0 0 1 2 2v0a2 2 0 0 1 -2 2h-4a2 2 0 0 1 -2 -2z"/><path d="M3 19m0 2a2 2 0 0 1 2 -2h4a2 2 0 0 1 2 2v0a2 2 0 0 1 -2 2h-4a2 2 0 0 1 -2 -2z"/></svg>